<svg width="26" height="30" viewBox="0 0 26 30" fill="none" xmlns="http://www.w3.org/2000/svg">
<g filter="url(#filter0_di_134_381)">
<path fill-rule="evenodd" clip-rule="evenodd" d="M10 18.9931L5.49639 18.9903C5.22224 18.9901 5 18.7617 5 18.4878V17C5 17 7 15 7 13V9.00006C7 6.57978 8.71222 4.56114 11.0024 4.09928C11.0008 4.0664 11 4.0333 11 4C11 2.89543 11.8877 2 13 2C14.1046 2 15 2.88773 15 4C15 4.03362 14.9992 4.06704 14.9976 4.10025C17.2811 4.56489 19 6.58894 19 9.00006V13C19 15 21 17 21 17V18.4953C21 18.774 20.7738 18.9999 20.5036 18.9997L16 18.9969V19C16 20.6569 14.6569 22 13 22C11.3431 22 10 20.6569 10 19V18.9931Z" fill="white"/>
</g>
<defs>
<filter id="filter0_di_134_381" x="0" y="0" width="26" height="30" filterUnits="userSpaceOnUse" color-interpolation-filters="sRGB">
<feFlood flood-opacity="0" result="BackgroundImageFix"/>
<feColorMatrix in="SourceAlpha" type="matrix" values="0 0 0 0 0 0 0 0 0 0 0 0 0 0 0 0 0 0 127 0" result="hardAlpha"/>
<feOffset dy="3"/>
<feGaussianBlur stdDeviation="2.5"/>
<feColorMatrix type="matrix" values="0 0 0 0 0 0 0 0 0 0 0 0 0 0 0 0 0 0 0.4 0"/>
<feBlend mode="normal" in2="BackgroundImageFix" result="effect1_dropShadow_134_381"/>
<feBlend mode="normal" in="SourceGraphic" in2="effect1_dropShadow_134_381" result="shape"/>
<feColorMatrix in="SourceAlpha" type="matrix" values="0 0 0 0 0 0 0 0 0 0 0 0 0 0 0 0 0 0 127 0" result="hardAlpha"/>
<feOffset dy="1"/>
<feComposite in2="hardAlpha" operator="arithmetic" k2="-1" k3="1"/>
<feColorMatrix type="matrix" values="0 0 0 0 1 0 0 0 0 1 0 0 0 0 1 0 0 0 0.6 0"/>
<feBlend mode="normal" in2="shape" result="effect2_innerShadow_134_381"/>
</filter>
</defs>
</svg>
