<svg width="24" height="24" viewBox="0 0 24 24" fill="none" xmlns="http://www.w3.org/2000/svg">
<path fill-rule="evenodd" clip-rule="evenodd" d="M17.2195 15.9139L19.8585 18.5529C20.0421 18.7365 20.0512 19.0251 19.8614 19.2148L19.2148 19.8614C19.0328 20.0434 18.7444 20.0499 18.5529 19.8585L15.914 17.2195C14.6634 18.1916 13.0919 18.7705 11.3853 18.7705C7.3065 18.7705 4 15.464 4 11.3853C4 7.3065 7.3065 4 11.3853 4C15.464 4 18.7705 7.3065 18.7705 11.3853C18.7705 13.0919 18.1916 14.6634 17.2195 15.9139ZM11.3853 16.9242C14.4443 16.9242 16.9242 14.4443 16.9242 11.3853C16.9242 8.32619 14.4443 5.84632 11.3853 5.84632C8.32619 5.84632 5.84632 8.32619 5.84632 11.3853C5.84632 14.4443 8.32619 16.9242 11.3853 16.9242Z" fill="white"/>
</svg>
